<?xml version="1.0" standalone="no"?><!DOCTYPE svg PUBLIC "-//W3C//DTD SVG 1.1//EN" "http://www.w3.org/Graphics/SVG/1.1/DTD/svg11.dtd"><svg t="1717849238713" class="icon" viewBox="0 0 1024 1024" version="1.1" xmlns="http://www.w3.org/2000/svg" p-id="6033" xmlns:xlink="http://www.w3.org/1999/xlink" width="200" height="200"><path d="M802.133333 170.666667v682.666666h-597.333333V170.666667h597.333333m0-85.333334h-597.333333a85.333333 85.333333 0 0 0-85.333333 85.333334v682.666666a85.333333 85.333333 0 0 0 85.333333 85.333334h597.333333a85.333333 85.333333 0 0 0 85.333334-85.333334V170.666667a85.333333 85.333333 0 0 0-85.333334-85.333334z" fill="#666666" p-id="6034"></path><path d="M674.133333 298.666667h-341.333333a42.666667 42.666667 0 0 0 0 85.333333h341.333333a42.666667 42.666667 0 0 0 0-85.333333zM503.466667 469.333333h-170.666667a42.666667 42.666667 0 0 0 0 85.333334h170.666667a42.666667 42.666667 0 0 0 0-85.333334zM631.466667 640h-298.666667a42.666667 42.666667 0 0 0 0 85.333333h298.666667a42.666667 42.666667 0 0 0 0-85.333333z" fill="#666666" p-id="6035"></path></svg>