<svg xmlns="http://www.w3.org/2000/svg" width="1em" height="1em" fill="currentColor" aria-hidden="true" focusable="false" class=""><g fill="none" fill-rule="evenodd"><path fill="currentColor" fill-rule="nonzero" d="M11.349 3.858A2.716 2.716 0 0 0 9.422 3a2.712 2.712 0 0 0-1.955.788L2.364 8.831a.73.73 0 0 0-.215.484l-.148 3.047c-.01.199.062.394.198.537a.7.7 0 0 0 .518.22l2.98-.044a.699.699 0 0 0 .482-.203l5.103-5.042a2.84 2.84 0 0 0 .838-1.972 2.845 2.845 0 0 0-.77-2h-.001Zm-.962 1.066a1.386 1.386 0 0 1-.088 1.865l-4.902 4.844-1.947.03.097-1.99 4.902-4.844c.254-.251.595-.389.948-.383.353.007.69.156.935.417l.055.06Z"></path><path stroke="currentColor" stroke-linecap="round" stroke-width="1.8" d="M2.46 15.42H13.5"></path></g></svg>