<svg t="1725285057448" class="icon" viewBox="0 0 1024 1024" version="1.1" xmlns="http://www.w3.org/2000/svg" p-id="7633" width="200" height="200"><path d="M439.19 673.05H115.68c-19.37 0-35.22 15.85-35.22 35.22v216.07c0 19.37 15.85 35.22 35.22 35.22h323.51c19.37 0 35.22-15.85 35.22-35.22V708.27c0-19.37-15.85-35.22-35.22-35.22z m-36.41 195.02c0 10.93-8.94 19.87-19.87 19.87H171.95c-10.93 0-19.87-8.94-19.87-19.87V764.54c0-10.93 8.94-19.87 19.87-19.87h210.96c10.93 0 19.87 8.94 19.87 19.87v103.53zM904.76 64.22H581.25c-19.37 0-35.22 15.85-35.22 35.22v216.07c0 19.37 15.85 35.22 35.22 35.22h323.51c19.37 0 35.22-15.85 35.22-35.22V99.44c0-19.37-15.85-35.22-35.22-35.22z m-36.41 195.02c0 10.93-8.94 19.87-19.87 19.87H637.53c-10.93 0-19.87-8.94-19.87-19.87V155.72c0-10.93 8.94-19.87 19.87-19.87h210.96c10.93 0 19.87 8.94 19.87 19.87v103.52zM426.18 64.22h-297.5c-26.52 0-48.22 21.7-48.22 48.22V553.2c0 26.52 21.7 48.22 48.22 48.22h297.5c26.52 0 48.22-21.7 48.22-48.22V112.45c0.01-26.53-21.69-48.23-48.22-48.23z m-23.4 432.63c0 18.12-14.82 32.94-32.94 32.94H185.03c-18.12 0-32.94-14.82-32.94-32.94V168.79c0-18.12 14.82-32.94 32.94-32.94h184.81c18.12 0 32.94 14.82 32.94 32.94v328.06zM891.76 422.36h-297.5c-26.52 0-48.22 21.7-48.22 48.22v440.75c0 26.52 21.7 48.22 48.22 48.22h297.5c26.52 0 48.22-21.7 48.22-48.22V470.58c0-26.52-21.7-48.22-48.22-48.22z m-23.41 432.63c0 18.12-14.82 32.94-32.94 32.94H650.6c-18.12 0-32.94-14.82-32.94-32.94V526.93c0-18.12 14.82-32.94 32.94-32.94h184.81c18.12 0 32.94 14.82 32.94 32.94v328.06z" p-id="7634"></path></svg>