<?xml version="1.0" standalone="no"?><!DOCTYPE svg PUBLIC "-//W3C//DTD SVG 1.1//EN" "http://www.w3.org/Graphics/SVG/1.1/DTD/svg11.dtd"><svg t="1724673139681" class="icon" viewBox="0 0 1024 1024" version="1.1" xmlns="http://www.w3.org/2000/svg" p-id="7231" xmlns:xlink="http://www.w3.org/1999/xlink" width="200" height="200"><path d="M593 32h-159c-24 0-42 18-42 39 0 21 18 39 39 39h159c21 0 39-18 39-39 3-21-15-39-36-39zM272 32H161C89 32 32 89 32 161V272c0 21 18 39 39 39S113 293 113 272V161c0-27 21-48 48-48H272c21 0 39-18 39-39C311 50 293 32 272 32zM71 632c21 0 39-18 39-39v-159c0-21-18-39-39-39S32 410 32 431v159c0 24 18 42 39 42zM272 911H161c-27 0-48-21-48-48V752c0-21-18-39-39-39S32 731 32 752v111C32 935 89 992 161 992H272c21 0 39-18 39-39 0-24-18-42-39-42zM593 911h-159c-21 0-39 18-39 39 0 21 18 39 39 39h159c21 0 39-18 39-39 0-21-18-39-39-39zM953 713c-21 0-39 18-39 39v111c0 27-21 48-48 48H752c-21 0-39 18-39 39 0 21 18 39 39 39h111c69 0 129-57 129-129V752c0-21-18-39-39-39zM953 392c-21 0-39 18-39 39v159c0 21 18 39 39 39 21 0 39-18 39-39v-159c0-21-18-39-39-39zM863 32H752c-21 0-39 18-39 39 0 21 18 39 39 39h111c27 0 48 21 48 48V272c0 21 18 39 39 39 24 0 42-18 42-39V161C992 89 935 32 863 32z" p-id="7232"></path></svg>