<svg t="1725286992456" class="icon" viewBox="0 0 1024 1024" version="1.1" xmlns="http://www.w3.org/2000/svg" p-id="22228" width="200" height="200"><path d="M245.333333 522.666667h106.666667v85.333333h-106.666667zM373.333333 522.666667h128v85.333333h-128zM373.333333 416h128v85.333333h-128zM522.666667 309.333333h128v85.333334h-128zM373.333333 213.333333h128v74.666667h-128zM245.333333 213.333333h106.666667v74.666667h-106.666667zM245.333333 416h106.666667v85.333333h-106.666667zM373.333333 629.333333h128v85.333334h-128zM373.333333 309.333333h128v85.333334h-128zM522.666667 629.333333h128v85.333334h-128zM672 416h106.666667v85.333333h-106.666667zM522.666667 522.666667h128v85.333333h-128zM672 213.333333h106.666667v74.666667h-106.666667zM672 309.333333h106.666667v85.333334h-106.666667zM672 522.666667h106.666667v85.333333h-106.666667zM522.666667 416h128v85.333333h-128zM522.666667 213.333333h128v74.666667h-128zM672 629.333333h106.666667v85.333334h-106.666667zM800 522.666667H917.333333v85.333333h-117.333333zM800 629.333333H917.333333v85.333334h-117.333333zM672 736h106.666667V810.666667h-106.666667zM800 810.666667H896l21.333333-21.333334v-53.333333h-117.333333zM522.666667 736h128V810.666667h-128zM800 309.333333H917.333333v85.333334h-117.333333zM800 416H917.333333v85.333333h-117.333333zM245.333333 309.333333h106.666667v85.333334h-106.666667zM373.333333 736h128V810.666667h-128zM896 213.333333h-96v74.666667H917.333333V234.666667zM106.666667 309.333333h117.333333v85.333334H106.666667zM224 213.333333H128l-21.333333 21.333334v53.333333h117.333333zM245.333333 629.333333h106.666667v85.333334h-106.666667zM245.333333 736h106.666667V810.666667h-106.666667zM106.666667 416h117.333333v85.333333H106.666667zM106.666667 736V789.333333l21.333333 21.333334h96v-74.666667zM106.666667 629.333333h117.333333v85.333334H106.666667zM106.666667 522.666667h117.333333v85.333333H106.666667z" fill="#1F232F" p-id="22229"></path></svg>